HIERARCHY
ROOT Root
{
	OFFSET 0.00000 0.00000 0.00000
	CHANNELS 6 Xposition Yposition Zposition Zrotation Xrotation Yrotation
	JOINT Hip
	{
		OFFSET 0 0 0	
		CHANNELS 3 Zrotation Xrotation Yrotation
		JOINT Tummy
		{
			OFFSET 0 0.04 0	
			CHANNELS 3 Zrotation Xrotation Yrotation
			JOINT ChestBottom
			{
				OFFSET 0 0.194 0	
				CHANNELS 3 Zrotation Xrotation Yrotation
				JOINT ChestTop
				{
					OFFSET 0 0.166 0	
					CHANNELS 3 Zrotation Xrotation Yrotation
					JOINT LeftCollar
					{
						OFFSET 0 0.1 0	
						CHANNELS 3 Zrotation Xrotation Yrotation
						JOINT LeftUpperArm
						{
							OFFSET 0.156 -0.02 0.03	
							CHANNELS 3 Zrotation Xrotation Yrotation
							JOINT LeftForeArm
							{
								OFFSET 0.035 -0.27 -0.01	
								CHANNELS 3 Zrotation Xrotation Yrotation
								JOINT LeftHand
								{
									OFFSET 0.01 -0.27 0.01	
									CHANNELS 3 Zrotation Xrotation Yrotation
									End Site
									{
										OFFSET 0 -0.15 0
									}
								}
							}
						}
					}
					JOINT RightCollar
					{
						OFFSET 0 0.1 0	
						CHANNELS 3 Zrotation Xrotation Yrotation
						JOINT RightUpperArm
						{
							OFFSET -0.156 -0.02 0.03	
							CHANNELS 3 Zrotation Xrotation Yrotation
							JOINT RightForeArm
							{
								OFFSET -0.035 -0.27 -0.01	
								CHANNELS 3 Zrotation Xrotation Yrotation
								JOINT RightHand
								{
									OFFSET -0.01 -0.27 0.01	
									CHANNELS 3 Zrotation Xrotation Yrotation
									End Site
									{
										OFFSET 0 -0.15 0
									}
								}
							}
						}
					}
					JOINT Neck
					{
						OFFSET 0 0.1 0	
						CHANNELS 3 Zrotation Xrotation Yrotation
						JOINT Head
						{
							OFFSET 0 0.127 0.03	
							CHANNELS 3 Zrotation Xrotation Yrotation
							End Site
							{
								OFFSET 0 0.127 0.03
							}
						}
					}
				}
			}
		}
	}
	JOINT LeftHip
	{
		OFFSET 0 0 0	
		CHANNELS 3 Zrotation Xrotation Yrotation
		JOINT LeftThigh
		{
			OFFSET 0.088 -0.06 0	
			CHANNELS 3 Zrotation Xrotation Yrotation
			JOINT LeftLowerLeg
			{
				OFFSET 0 -0.39 0.02	
				CHANNELS 3 Zrotation Xrotation Yrotation
				JOINT LeftFootTop
				{
					OFFSET 0 -0.43 -0.02	
					CHANNELS 3 Zrotation Xrotation Yrotation
					JOINT LeftFootFront
					{
						OFFSET 0 -0.07 0.085	
						CHANNELS 3 Zrotation Xrotation Yrotation
						End Site
						{
							OFFSET 0 -0.005 0.09
						}
					}
				}
				JOINT LeftHeel
				{
					OFFSET 0 -0.43 -0.02	
					CHANNELS 3 Zrotation Xrotation Yrotation
					End Site
					{
						OFFSET 0 -0.075 -0.05
					}
				}
			}
		}
	}
	JOINT RightHip
	{
		OFFSET 0 0 0	
		CHANNELS 3 Zrotation Xrotation Yrotation
		JOINT RightThigh
		{
			OFFSET -0.088 -0.06 0	
			CHANNELS 3 Zrotation Xrotation Yrotation
			JOINT RightLowerLeg
			{
				OFFSET 0 -0.39 0.02	
				CHANNELS 3 Zrotation Xrotation Yrotation
				JOINT RightFootTop
				{
					OFFSET 0 -0.43 -0.02	
					CHANNELS 3 Zrotation Xrotation Yrotation
					JOINT RightFootFront
					{
						OFFSET 0 -0.07 0.085	
						CHANNELS 3 Zrotation Xrotation Yrotation
						End Site
						{
							OFFSET 0 -0.005 0.09
						}
					}
				}
				JOINT RightHeel
				{
					OFFSET 0 -0.43 -0.02	
					CHANNELS 3 Zrotation Xrotation Yrotation
					End Site
					{
						OFFSET 0 -0.075 -0.05
					}
				}
			}
		}
	}
}
MOTION
Frames: 18
Frame Time: 0.05
0 0.955 0 -0 0 -0 -0 0 -0 -0 0 -0 -25.801 32.609 51.123 -0 0 -0 -0 0 -0 -22.921 -59.969 -52.406 -89.393 -29.108 -34.937 -0 0 -0 -0 0 -0 -6.7994 -66.9 59.075 94.024 -26.757 29.565 -0 0 -0 1.0096 -20.515 22.641 1.0096 -20.516 22.641 -0 0 -0 -0 0 -0 -0 0 -0 -0 0 -0 -0 0 -0 -0 0 -0 -0 0 -0 -0 0 -0 -0 0 -0 -0 0 -0 -0 0 -0 -0 0 -0 
0 0.955 0 -0 0 -0 -0 0 -0 -0 0 -0 -25.843 32.527 51.166 -0 0 -0 -0 0 -0 -22.87 -59.965 -52.437 -89.385 -29.121 -34.842 -0 0 -0 -0 0 -0 -6.792 -66.843 59.008 94.01 -26.765 29.615 -0 0 -0 1.0234 -20.599 22.654 1.0234 -20.599 22.654 -0 0 -0 -0 0 -0 -0 0 -0 -0 0 -0 -0 0 -0 -0 0 -0 -0 0 -0 -0 0 -0 -0 0 -0 -0 0 -0 -0 0 -0 -0 0 -0 
0 0.955 0 -0 0 -0 -0 0 -0 -0 0 -0 -25.833 32.412 51.202 -0 0 -0 -0 0 -0 -22.809 -59.896 -52.461 -89.381 -29.136 -34.756 -0 0 -0 -0 0 -0 -6.837 -66.731 58.884 94.007 -26.763 29.661 -0 0 -0 1.0285 -20.647 22.658 1.0285 -20.647 22.658 -0 0 -0 -0 0 -0 -0 0 -0 -0 0 -0 -0 0 -0 -0 0 -0 -0 0 -0 -0 0 -0 -0 0 -0 -0 0 -0 -0 0 -0 -0 0 -0 
0 0.955 0 -0 0 -0 -0 0 -0 -0 0 -0 -25.817 32.29 51.215 -0 0 -0 -0 0 -0 -22.686 -59.809 -52.432 -89.388 -29.154 -34.713 -0 0 -0 -0 0 -0 -6.8863 -66.585 58.748 94.016 -26.736 29.725 -0 0 -0 1.027 -20.653 22.675 1.027 -20.653 22.675 -0 0 -0 -0 0 -0 -0 0 -0 -0 0 -0 -0 0 -0 -0 0 -0 -0 0 -0 -0 0 -0 -0 0 -0 -0 0 -0 -0 0 -0 -0 0 -0 
0 0.955 0 -0 0 -0 -0 0 -0 -0 0 -0 -25.841 32.23 51.217 -0 0 -0 -0 0 -0 -22.586 -59.781 -52.399 -89.388 -29.17 -34.71 -0 0 -0 -0 0 -0 -6.9599 -66.479 58.688 94.029 -26.779 29.826 -0 0 -0 1.0269 -20.632 22.705 1.0269 -20.632 22.705 -0 0 -0 -0 0 -0 -0 0 -0 -0 0 -0 -0 0 -0 -0 0 -0 -0 0 -0 -0 0 -0 -0 0 -0 -0 0 -0 -0 0 -0 -0 0 -0 
0 0.955 0 -0 0 -0 -0 0 -0 -0 0 -0 -25.837 32.211 51.208 -0 0 -0 -0 0 -0 -22.557 -59.744 -52.389 -89.359 -29.167 -34.699 -0 0 -0 -0 0 -0 -7.1326 -66.386 58.57 94.064 -26.824 29.95 -0 0 -0 1.0287 -20.574 22.725 1.0287 -20.574 22.725 -0 0 -0 -0 0 -0 -0 0 -0 -0 0 -0 -0 0 -0 -0 0 -0 -0 0 -0 -0 0 -0 -0 0 -0 -0 0 -0 -0 0 -0 -0 0 -0 
0 0.955 0 -0 0 -0 -0 0 -0 -0 0 -0 -25.876 32.245 51.19 -0 0 -0 -0 0 -0 -22.541 -59.774 -52.376 -89.327 -29.173 -34.68 -0 0 -0 -0 0 -0 -7.2364 -66.378 58.516 94.098 -26.846 30.053 -0 0 -0 1.0341 -20.525 22.754 1.0341 -20.525 22.754 -0 0 -0 -0 0 -0 -0 0 -0 -0 0 -0 -0 0 -0 -0 0 -0 -0 0 -0 -0 0 -0 -0 0 -0 -0 0 -0 -0 0 -0 -0 0 -0 
0 0.955 0 -0 0 -0 -0 0 -0 -0 0 -0 -25.89 32.312 51.161 -0 0 -0 -0 0 -0 -22.578 -59.807 -52.363 -89.296 -29.167 -34.678 -0 0 -0 -0 0 -0 -7.3823 -66.389 58.453 94.134 -26.866 30.153 -0 0 -0 1.0232 -20.475 22.781 1.0232 -20.475 22.781 -0 0 -0 -0 0 -0 -0 0 -0 -0 0 -0 -0 0 -0 -0 0 -0 -0 0 -0 -0 0 -0 -0 0 -0 -0 0 -0 -0 0 -0 -0 0 -0 
0 0.955 0 -0 0 -0 -0 0 -0 -0 0 -0 -25.87 32.358 51.136 -0 0 -0 -0 0 -0 -22.617 -59.79 -52.352 -89.271 -29.164 -34.681 -0 0 -0 -0 0 -0 -7.5464 -66.406 58.36 94.188 -26.887 30.226 -0 0 -0 1.0006 -20.404 22.792 1.0006 -20.404 22.792 -0 0 -0 -0 0 -0 -0 0 -0 -0 0 -0 -0 0 -0 -0 0 -0 -0 0 -0 -0 0 -0 -0 0 -0 -0 0 -0 -0 0 -0 -0 0 -0 
0 0.955 0 -0 0 -0 -0 0 -0 -0 0 -0 -25.873 32.419 51.142 -0 0 -0 -0 0 -0 -22.685 -59.795 -52.37 -89.252 -29.153 -34.687 -0 0 -0 -0 0 -0 -7.7395 -66.45 58.224 94.247 -26.901 30.274 -0 0 -0 0.95514 -20.325 22.794 0.95514 -20.325 22.794 -0 0 -0 -0 0 -0 -0 0 -0 -0 0 -0 -0 0 -0 -0 0 -0 -0 0 -0 -0 0 -0 -0 0 -0 -0 0 -0 -0 0 -0 -0 0 -0 
0 0.955 0 -0 0 -0 -0 0 -0 -0 0 -0 -25.857 32.436 51.073 -0 0 -0 -0 0 -0 -22.585 -59.787 -52.222 -89.255 -29.149 -34.7 -0 0 -0 -0 0 -0 -7.7234 -66.46 58.282 94.298 -26.912 30.309 -0 0 -0 0.94066 -20.207 22.835 0.94066 -20.207 22.835 -0 0 -0 -0 0 -0 -0 0 -0 -0 0 -0 -0 0 -0 -0 0 -0 -0 0 -0 -0 0 -0 -0 0 -0 -0 0 -0 -0 0 -0 -0 0 -0 
0 0.955 0 -0 0 -0 -0 0 -0 -0 0 -0 -25.833 32.48 51.045 -0 0 -0 -0 0 -0 -22.585 -59.763 -52.167 -89.241 -29.137 -34.71 -0 0 -0 -0 0 -0 -7.8351 -66.481 58.24 94.349 -26.936 30.34 -0 0 -0 0.90039 -20.104 22.845 0.90039 -20.104 22.845 -0 0 -0 -0 0 -0 -0 0 -0 -0 0 -0 -0 0 -0 -0 0 -0 -0 0 -0 -0 0 -0 -0 0 -0 -0 0 -0 -0 0 -0 -0 0 -0 
0 0.955 0 -0 0 -0 -0 0 -0 -0 0 -0 -25.854 32.539 51.038 -0 0 -0 -0 0 -0 -22.596 -59.768 -52.142 -89.218 -29.125 -34.725 -0 0 -0 -0 0 -0 -7.9316 -66.528 58.198 94.395 -26.957 30.375 -0 0 -0 0.85415 -20.055 22.841 0.85415 -20.055 22.841 -0 0 -0 -0 0 -0 -0 0 -0 -0 0 -0 -0 0 -0 -0 0 -0 -0 0 -0 -0 0 -0 -0 0 -0 -0 0 -0 -0 0 -0 -0 0 -0 
0 0.955 0 -0 0 -0 -0 0 -0 -0 0 -0 -25.917 32.613 51.039 -0 0 -0 -0 0 -0 -22.61 -59.828 -52.129 -89.208 -29.11 -34.72 -0 0 -0 -0 0 -0 -7.9674 -66.6 58.21 94.424 -26.983 30.406 -0 0 -0 0.79818 -20.059 22.837 0.79818 -20.059 22.837 -0 0 -0 -0 0 -0 -0 0 -0 -0 0 -0 -0 0 -0 -0 0 -0 -0 0 -0 -0 0 -0 -0 0 -0 -0 0 -0 -0 0 -0 -0 0 -0 
0 0.955 0 -0 0 -0 -0 0 -0 -0 0 -0 -25.91 32.682 50.97 -0 0 -0 -0 0 -0 -22.615 -59.846 -52.049 -89.178 -29.082 -34.704 -0 0 -0 -0 0 -0 -7.9395 -66.636 58.344 94.469 -27.035 30.415 -0 0 -0 0.72158 -20.058 22.848 0.72158 -20.058 22.848 -0 0 -0 -0 0 -0 -0 0 -0 -0 0 -0 -0 0 -0 -0 0 -0 -0 0 -0 -0 0 -0 -0 0 -0 -0 0 -0 -0 0 -0 -0 0 -0 
0 0.955 0 -0 0 -0 -0 0 -0 -0 0 -0 -25.95 32.76 51.033 -0 0 -0 -0 0 -0 -22.835 -59.862 -52.217 -89.137 -29.05 -34.678 -0 0 -0 -0 0 -0 -8.1853 -66.685 58.156 94.511 -27.058 30.45 -0 0 -0 0.61016 -20.073 22.798 0.61016 -20.073 22.798 -0 0 -0 -0 0 -0 -0 0 -0 -0 0 -0 -0 0 -0 -0 0 -0 -0 0 -0 -0 0 -0 -0 0 -0 -0 0 -0 -0 0 -0 -0 0 -0 
0 0.955 0 -0 0 -0 -0 0 -0 -0 0 -0 -25.911 32.752 51.011 -0 0 -0 -0 0 -0 -22.921 -59.825 -52.228 -89.093 -28.996 -34.636 -0 0 -0 -0 0 -0 -8.2712 -66.634 58.116 94.548 -27.083 30.487 -0 0 -0 0.49245 -20.036 22.759 0.49245 -20.036 22.759 -0 0 -0 -0 0 -0 -0 0 -0 -0 0 -0 -0 0 -0 -0 0 -0 -0 0 -0 -0 0 -0 -0 0 -0 -0 0 -0 -0 0 -0 -0 0 -0 
0 0.955 0 -0 0 -0 -0 0 -0 -0 0 -0 -25.865 32.731 50.981 -0 0 -0 -0 0 -0 -23.046 -59.799 -52.256 -89.031 -28.908 -34.568 -0 0 -0 -0 0 -0 -8.354 -66.572 58.052 94.591 -27.095 30.523 -0 0 -0 0.35538 -19.992 22.703 0.35538 -19.992 22.703 -0 0 -0 -0 0 -0 -0 0 -0 -0 0 -0 -0 0 -0 -0 0 -0 -0 0 -0 -0 0 -0 -0 0 -0 -0 0 -0 -0 0 -0 -0 0 -0 
